<svg xmlns="http://www.w3.org/2000/svg" width="1200" height="720" viewBox="0 0 1200 720" role="img" aria-label="TurkMod default theme preview">
  <rect width="1200" height="720" fill="#f0f2f5"/>
  <rect x="80" y="72" width="1040" height="96" rx="18" fill="#1a1f2e"/>
  <rect x="112" y="104" width="52" height="52" rx="14" fill="#8b1538"/>
  <rect x="184" y="111" width="220" height="18" rx="9" fill="#ffffff"/>
  <rect x="184" y="139" width="138" height="12" rx="6" fill="#94a3b8"/>
  <rect x="760" y="107" width="104" height="34" rx="17" fill="#252d3d"/>
  <rect x="884" y="107" width="104" height="34" rx="17" fill="#8b1538"/>
  <rect x="80" y="216" width="460" height="332" rx="20" fill="#ffffff" stroke="#d8dee8"/>
  <rect x="112" y="248" width="396" height="172" rx="14" fill="#dbe3ee"/>
  <rect x="112" y="448" width="96" height="14" rx="7" fill="#8b1538"/>
  <rect x="112" y="476" width="304" height="24" rx="12" fill="#111827"/>
  <rect x="112" y="516" width="348" height="14" rx="7" fill="#64748b"/>
  <rect x="580" y="216" width="540" height="76" rx="18" fill="#ffffff" stroke="#d8dee8"/>
  <rect x="612" y="244" width="260" height="20" rx="10" fill="#111827"/>
  <rect x="580" y="320" width="540" height="228" rx="18" fill="#ffffff" stroke="#d8dee8"/>
  <rect x="612" y="352" width="168" height="16" rx="8" fill="#8b1538"/>
  <rect x="612" y="392" width="420" height="18" rx="9" fill="#111827"/>
  <rect x="612" y="430" width="372" height="14" rx="7" fill="#64748b"/>
  <rect x="612" y="462" width="308" height="14" rx="7" fill="#94a3b8"/>
</svg>
